<mxfile host="app.diagrams.net" modified="2023-09-28T13:30:44.896Z" agent="Mozilla/5.0 (Macintosh; Intel Mac OS X 10_15_7) AppleWebKit/537.36 (KHTML, like Gecko) Chrome/116.0.0.0 Safari/537.36" etag="kIl_JsCxJKC5lVSm_lcp" version="22.0.0" type="device">
  <diagram name="Страница — 1" id="IOugW8rS81U4fg_-yw1j">
    <mxGraphModel dx="1026" dy="575" grid="1" gridSize="10" guides="1" tooltips="1" connect="1" arrows="1" fold="1" page="1" pageScale="1" pageWidth="827" pageHeight="1169" math="0" shadow="0">
      <root>
        <mxCell id="0" />
        <mxCell id="1" parent="0" />
        <mxCell id="Ttrl2KT7kpHsJ9NMXtcA-3" value="" style="edgeStyle=orthogonalEdgeStyle;rounded=0;orthogonalLoop=1;jettySize=auto;html=1;" edge="1" parent="1" source="Ttrl2KT7kpHsJ9NMXtcA-1" target="Ttrl2KT7kpHsJ9NMXtcA-2">
          <mxGeometry relative="1" as="geometry" />
        </mxCell>
        <mxCell id="Ttrl2KT7kpHsJ9NMXtcA-1" value="public override string ToString()" style="strokeWidth=2;html=1;shape=mxgraph.flowchart.terminator;whiteSpace=wrap;" vertex="1" parent="1">
          <mxGeometry x="364" y="100" width="100" height="60" as="geometry" />
        </mxCell>
        <mxCell id="Ttrl2KT7kpHsJ9NMXtcA-5" value="" style="edgeStyle=orthogonalEdgeStyle;rounded=0;orthogonalLoop=1;jettySize=auto;html=1;" edge="1" parent="1" source="Ttrl2KT7kpHsJ9NMXtcA-2" target="Ttrl2KT7kpHsJ9NMXtcA-4">
          <mxGeometry relative="1" as="geometry" />
        </mxCell>
        <mxCell id="Ttrl2KT7kpHsJ9NMXtcA-2" value="&lt;div&gt;string Res = &quot;&quot;;&lt;/div&gt;&lt;div&gt;&lt;span style=&quot;background-color: initial;&quot;&gt;Elem current = _Head;&lt;/span&gt;&lt;/div&gt;" style="whiteSpace=wrap;html=1;strokeWidth=2;" vertex="1" parent="1">
          <mxGeometry x="351" y="190" width="126" height="40" as="geometry" />
        </mxCell>
        <mxCell id="Ttrl2KT7kpHsJ9NMXtcA-7" value="Так" style="edgeStyle=orthogonalEdgeStyle;rounded=0;orthogonalLoop=1;jettySize=auto;html=1;" edge="1" parent="1" source="Ttrl2KT7kpHsJ9NMXtcA-4" target="Ttrl2KT7kpHsJ9NMXtcA-6">
          <mxGeometry relative="1" as="geometry" />
        </mxCell>
        <mxCell id="Ttrl2KT7kpHsJ9NMXtcA-10" value="Ні" style="edgeStyle=orthogonalEdgeStyle;rounded=0;orthogonalLoop=1;jettySize=auto;html=1;" edge="1" parent="1" source="Ttrl2KT7kpHsJ9NMXtcA-4" target="Ttrl2KT7kpHsJ9NMXtcA-9">
          <mxGeometry relative="1" as="geometry">
            <Array as="points">
              <mxPoint x="330" y="270" />
              <mxPoint x="330" y="420" />
            </Array>
          </mxGeometry>
        </mxCell>
        <mxCell id="Ttrl2KT7kpHsJ9NMXtcA-4" value="current != null" style="rhombus;whiteSpace=wrap;html=1;strokeWidth=2;" vertex="1" parent="1">
          <mxGeometry x="364" y="250" width="100" height="40" as="geometry" />
        </mxCell>
        <mxCell id="Ttrl2KT7kpHsJ9NMXtcA-8" style="edgeStyle=orthogonalEdgeStyle;rounded=0;orthogonalLoop=1;jettySize=auto;html=1;" edge="1" parent="1" source="Ttrl2KT7kpHsJ9NMXtcA-6" target="Ttrl2KT7kpHsJ9NMXtcA-4">
          <mxGeometry relative="1" as="geometry">
            <Array as="points">
              <mxPoint x="510" y="350" />
              <mxPoint x="510" y="270" />
            </Array>
          </mxGeometry>
        </mxCell>
        <mxCell id="Ttrl2KT7kpHsJ9NMXtcA-6" value="&lt;div&gt;Res += current._inf + &quot;\t&quot;;&lt;/div&gt;&lt;div&gt;&amp;nbsp;current = current._R;&lt;/div&gt;" style="whiteSpace=wrap;html=1;strokeWidth=2;" vertex="1" parent="1">
          <mxGeometry x="341" y="330" width="146" height="40" as="geometry" />
        </mxCell>
        <mxCell id="Ttrl2KT7kpHsJ9NMXtcA-9" value="return Res;" style="strokeWidth=2;html=1;shape=mxgraph.flowchart.terminator;whiteSpace=wrap;" vertex="1" parent="1">
          <mxGeometry x="374" y="400" width="80" height="40" as="geometry" />
        </mxCell>
      </root>
    </mxGraphModel>
  </diagram>
</mxfile>
